<svg xmlns="http://www.w3.org/2000/svg" viewBox="0 0 100 100" width="512" height="512">
  <rect width="100" height="100" fill="#fde7ee"/>
  <g transform="translate(50 52) scale(0.6)">
    <path d="M2 30 C-8 44 -26 44 -30 32 C-16 30 -4 34 2 30 Z" fill="#8aa893" opacity="0.9"/>
    <g fill="#e98aae" opacity="0.85">
      <ellipse cx="0" cy="-22" rx="11" ry="22"/>
      <ellipse cx="0" cy="-22" rx="11" ry="22" transform="rotate(45)"/>
      <ellipse cx="0" cy="-22" rx="11" ry="22" transform="rotate(90)"/>
      <ellipse cx="0" cy="-22" rx="11" ry="22" transform="rotate(135)"/>
      <ellipse cx="0" cy="-22" rx="11" ry="22" transform="rotate(180)"/>
      <ellipse cx="0" cy="-22" rx="11" ry="22" transform="rotate(225)"/>
      <ellipse cx="0" cy="-22" rx="11" ry="22" transform="rotate(270)"/>
      <ellipse cx="0" cy="-22" rx="11" ry="22" transform="rotate(315)"/>
    </g>
    <g fill="#c64f7b" opacity="0.9">
      <ellipse cx="0" cy="-13" rx="7" ry="14" transform="rotate(22)"/>
      <ellipse cx="0" cy="-13" rx="7" ry="14" transform="rotate(67)"/>
      <ellipse cx="0" cy="-13" rx="7" ry="14" transform="rotate(112)"/>
      <ellipse cx="0" cy="-13" rx="7" ry="14" transform="rotate(157)"/>
      <ellipse cx="0" cy="-13" rx="7" ry="14" transform="rotate(202)"/>
      <ellipse cx="0" cy="-13" rx="7" ry="14" transform="rotate(247)"/>
      <ellipse cx="0" cy="-13" rx="7" ry="14" transform="rotate(292)"/>
      <ellipse cx="0" cy="-13" rx="7" ry="14" transform="rotate(337)"/>
    </g>
    <circle cx="0" cy="0" r="11" fill="#f6b94b"/>
  </g>
</svg>
